<svg xmlns="http://www.w3.org/2000/svg" viewBox="0 0 41.87 30.09"><defs><style>.cls-1{fill:#8dc63f;}.cls-2{fill:#231f20;}</style></defs><g id="Layer_2" data-name="Layer 2"><g id="Layer_1-2" data-name="Layer 1"><path class="cls-1" d="M21.9,2.89A26.94,26.94,0,0,1,23.44.6q-.29,9.06.23,18.12A13.63,13.63,0,0,1,34.43,10.5L30.81,20.57c3-2.45,6.81-5.05,10.43-3.68.12,1.53-1.71,2.33-3,3.11-2.35,1.39-3.79,3.89-5.13,6.28l-1.48,2.65-12.32.49C14.76,24,5.58,23.72.63,28.64A17.76,17.76,0,0,1,17.82,20,29,29,0,0,1,21.9,2.89Z"/><path class="cls-2" d="M22.44,3.21c.48-.79,1-1.55,1.54-2.3L22.81.6q-.27,9.06.23,18.12c0,.56.91.94,1.17.32a13.17,13.17,0,0,1,10.38-7.93l-.76-.77L30.21,20.4c-.23.65.61,1,1,.61,2.71-2.19,6.17-4.76,9.82-3.52l-.45-.6c0,1.27-1.51,1.87-2.46,2.42a10.66,10.66,0,0,0-2.86,2.4,43.21,43.21,0,0,0-4.25,6.9l.54-.31-5.91.24-3,.11-1.48.06a5,5,0,0,1-1.48.06c-.54-.17-1-.79-1.41-1.17a12.12,12.12,0,0,0-1.28-1,12.67,12.67,0,0,0-3.32-1.53A13.89,13.89,0,0,0,.19,28.2l1,.76a17.22,17.22,0,0,1,16.65-8.35.64.64,0,0,0,.63-.63,28.75,28.75,0,0,1,4-16.77.63.63,0,0,0-1.08-.64A30,30,0,0,0,17.2,20l.62-.62a18.47,18.47,0,0,0-17.73,9,.62.62,0,0,0,1,.75,12.65,12.65,0,0,1,16.4-.6c.47.4.91,1.12,1.42,1.43s1.68.08,2.35.05l6.65-.26,3.21-.13c.83,0,.93-.16,1.34-.89.9-1.61,1.76-3.26,2.79-4.79A12.4,12.4,0,0,1,39.5,20c1.21-.71,2.36-1.57,2.37-3.09a.65.65,0,0,0-.46-.61c-4.12-1.39-8,1.37-11,3.84l1,.61L35,10.67c.18-.5-.35-.83-.77-.77a14.29,14.29,0,0,0-11.13,8.51l1.16.31q-.49-9-.23-18.12c0-.68-.82-.78-1.16-.32-.55.75-1.06,1.51-1.54,2.29S22,3.89,22.44,3.21Z"/></g></g></svg>